<svg xmlns="http://www.w3.org/2000/svg" viewBox="0 0 750 500" style="enable-background:new 0 0 750 500" xml:space="preserve"><style>.st2{fill:none;stroke:#f9f9f9;stroke-width:1.033;stroke-linecap:round;stroke-miterlimit:10}.st8{fill:#f47676}.st10{fill:#423a64}.st15{fill:#e26060}.st16{fill:#f4eae4}.st19{fill:#7ac8a9}.st22{fill:#d37a57}.st23{fill:none;stroke:#423a64;stroke-width:1.1526;stroke-linecap:round;stroke-miterlimit:10}</style><g id="OBJECTS"><path d="M222.9 429.3s-73.5-114.7-16.7-208.2c56.8-93.5 141.7-18 220.9-2.3 34.5 6.9 79.6 9.9 113.5 27.6 57.2 25.3 51.2 47.6 106 73.5 63.8 30.1 63.8 75.7 40.8 109.4 0 0-33.8 65.7-112.3 43.7s-194.1 24.4-214.6 4.5c-20.5-19.8-108-1.2-137.6-48.2" style="opacity:.15"/><linearGradient id="SVGID_1_" gradientUnits="userSpaceOnUse" x1="162.105" y1="346.218" x2="152.551" y2="262.481"><stop offset=".004" style="stop-color:#60bec8"/><stop offset="1" style="stop-color:#79d7db"/></linearGradient><path d="M163 341.9c-24.2-29.8-54.2-99.2-34.8-139.4 19.4-40.2 50-18.7 44.1 20.7-5.9 39.4 2.5 83.5 16 107.4L163 341.9z" style="fill:url(#SVGID_1_)"/><path class="st2" d="M147.8 220.8c.3 1.1-.9 79.7 27.7 115.6"/><linearGradient id="SVGID_2_" gradientUnits="userSpaceOnUse" x1="172.792" y1="337.7" x2="183.47" y2="261.831"><stop offset=".004" style="stop-color:#67b292"/><stop offset="1" style="stop-color:#7ac8a9"/></linearGradient><path d="M186 323.4c-2.2-56 4.6-72.1 14.1-83.8 9.6-11.8 12.1-27.8-4.2-30.9-16.3-3.1-29.3 23.4-30.3 51.3-1.4 38.1 13.5 69.5 13.5 69.5l6.9-6.1z" style="fill:url(#SVGID_2_)"/><linearGradient id="SVGID_3_" gradientUnits="userSpaceOnUse" x1="148.14" y1="362.731" x2="116.669" y2="282.366"><stop offset=".004" style="stop-color:#67b292"/><stop offset="1" style="stop-color:#7ac8a9"/></linearGradient><path d="M157.7 341.9c-4.5-36-35.7-70.5-41.6-109.3-5.9-38.8-39.1-38.9-39.3-7.7-.3 31.3 50.3 86 60.1 136.6l20.8-19.6z" style="fill:url(#SVGID_3_)"/><path class="st2" d="M100.3 242.4c7.3 40.2 25.9 53.4 47.5 108.8"/><linearGradient id="SVGID_4_" gradientUnits="userSpaceOnUse" x1="144.321" y1="388.769" x2="94.866" y2="318.521"><stop offset=".004" style="stop-color:#60bec8"/><stop offset="1" style="stop-color:#79d7db"/></linearGradient><path d="M126.2 395.9c-15.5-36.2-64.9-74-80.1-93.6C30.9 282.6 18 240.2 56.8 241c38.8.9 74.5 83.2 87.7 128.4l-18.3 26.5z" style="fill:url(#SVGID_4_)"/><path class="st2" d="M58.8 273.3c27 23.9 57.1 69.1 77.7 107.6"/><g><linearGradient id="SVGID_5_" gradientUnits="userSpaceOnUse" x1="112.743" y1="399.982" x2="77.9" y2="362.891"><stop offset=".004" style="stop-color:#67b292"/><stop offset="1" style="stop-color:#7ac8a9"/></linearGradient><path d="M125.4 388.3C111 364.9 85.6 329.6 62 327.2c-23.6-2.4-35.7 24-14.8 34.4 21 10.4 49.8 10.4 62.1 41.7l16.1-15z" style="fill:url(#SVGID_5_)"/><path class="st2" d="M59.5 346.4s35.6 13.2 57.8 49.5"/></g><linearGradient id="SVGID_6_" gradientUnits="userSpaceOnUse" x1="64.176" y1="392.64" x2="112.707" y2="392.64"><stop offset=".004" style="stop-color:#60bec8"/><stop offset="1" style="stop-color:#79d7db"/></linearGradient><path d="M99.2 413.1c-6-12.8-27.1-5.8-33.9-22.2-6.7-16.4 16.9-26.7 32.3-10.9s15.1 25.7 15.1 25.7l-13.5 7.4z" style="fill:url(#SVGID_6_)"/><path class="st8" d="M265.2 429.3c9.5 0 16.7-8.6 15-18-5.7-30.9-24.1-90.7-80.1-91.3-75.6-.8-61 58.7-88.8 72.8-6.6 3.3-13.1 11.2-16.7 15.1 0 0 9.4 19.3 33.4 21.5 24 2.2 76.5 10.7 109.5 7.7s27.7-7.8 27.7-7.8"/><g><path d="m297 142.3 54.2 287H446c95.4 0 173.7-75.4 177.2-170.7 3.3-88.1-58.6-165.3-145.3-181.1l-98.2-18-82.7 82.8z" style="opacity:.81;fill:#fcd163"/><path class="st10" d="M266.3 439.6c3.6 0 5.3-4.5 2.5-6.8-10.1-8.5-23.1-13.7-37.3-13.7s-27.3 5.2-37.3 13.7c-2.7 2.3-1.1 6.8 2.5 6.8h69.6z"/><path d="M231.5 425V307.8c0-96-30.7-144.3-8.8-212.2 21.9-67.9 78.4-30.6 98-12.3" style="fill:none;stroke:#423a64;stroke-width:2.3052;stroke-linecap:round;stroke-miterlimit:10"/><path class="st10" d="M379.7 59.6c-21.3-.5-42.8 7.4-59.1 23.7-16.3 16.3-24.2 37.7-23.7 59.1l82.8-82.8z"/></g><g><linearGradient id="SVGID_7_" gradientUnits="userSpaceOnUse" x1="575.083" y1="293.604" x2="620.404" y2="293.604"><stop offset=".004" style="stop-color:#60bec8"/><stop offset="1" style="stop-color:#79d7db"/></linearGradient><path d="M595 344.1c-.6-25.8-19.8-50.4-19.9-74.8-.2-24.4 15.2-38.6 26.8-26 11.6 12.6 3.4 49.6 15 69.1 11.6 19.5-9.3 36.3-9.3 36.3l-12.6-4.6z" style="fill:url(#SVGID_7_)"/><path class="st2" d="M594.3 258.4c-3.9 29.3 19.3 52.9 8.2 88.3"/><g><linearGradient id="SVGID_8_" gradientUnits="userSpaceOnUse" x1="629.28" y1="337.493" x2="630.966" y2="243.078"><stop offset=".004" style="stop-color:#67b292"/><stop offset="1" style="stop-color:#7ac8a9"/></linearGradient><path d="M614.5 341.2c0-21-7.2-37.5-6-69.9 1.3-32.4 10.5-53.3 30-49.7 19.5 3.6 4.1 19.3 12.5 50.6s-25.5 73.4-25.5 73.4l-11-4.4z" style="fill:url(#SVGID_8_)"/><path class="st2" d="M630.7 246.8c-4.8 28.2 2.9 39.4-12 96.1"/></g><g><linearGradient id="SVGID_9_" gradientUnits="userSpaceOnUse" x1="659.571" y1="341.184" x2="659.571" y2="246.837"><stop offset=".004" style="stop-color:#60bec8"/><stop offset="1" style="stop-color:#79d7db"/></linearGradient><path d="M630.7 341.2c0-20.7 4.7-73.7 30.1-89.7 25.4-16 35.4 12.8 20.8 29.2-14.6 16.4-30.2 20.7-34.2 58.7l-16.7 1.8z" style="fill:url(#SVGID_9_)"/><path class="st2" d="M670.4 267c-19.2 16.4-30.8 44.9-31.3 73.2"/></g><path class="st8" d="M611.6 429.3H635c9.5 0 17.5-7.4 18.1-16.9l5.4-76.6c-11.6-.9-23.4-1.4-35.2-1.4-11.9 0-23.6.5-35.2 1.4l5.4 76.6c.6 9.6 8.5 16.9 18.1 16.9z"/></g><g><path class="st8" d="M405.5 143.8c-13.6 41.3 16.1 94.2-7.9 104.9l-21.6 9.7s-32.2 7.8-60.8-5c-28.6-12.8-36.2 61.1-26.8 99.4 9.4 38.3 43.2 46.2 66.9 46.2 23.7 0 64.4-30.1 64.4-30.1l46.2-45 57.5-65.6 5.5-126.4c-67.1-22.7-117.4-6.4-123.4 11.9z"/><path class="st15" d="m523.4 258.4 5.5-126.4c-37.3-12.7-68.7-13.3-90.2-8.1-2.9 52.4-6.6 137.3-3.3 193.3.8 13.3 3.4 22.8 7.2 29.6L466 324l57.4-65.6z"/><path class="st10" d="M351.2 429.3c-2.6 0-4.8-2-5.1-4.6l-4.1-36.5h18.4l-4.1 36.5c-.3 2.7-2.5 4.6-5.1 4.6zM465.9 429.3c-2.6 0-4.8-2-5.1-4.6l-4.1-36.5h18.4l-4.1 36.5c-.3 2.7-2.4 4.6-5.1 4.6zM511.6 429.3c-2.6 0-4.8-2-5.1-4.6l-4.1-36.5h18.4l-4.1 36.5c-.3 2.7-2.5 4.6-5.1 4.6z"/><path class="st15" d="M488.4 399.1H346.7c-38.2 0-41-63-27.6-80.9 13.4-17.9 64.6-20.7 121.7-20.1 57.1.7 47.6 101 47.6 101z"/><g><path class="st16" d="M362.2 257.1h-11.4c-2.3 0-4.1-1.9-4.1-4.1v-28h19.7v28c0 2.2-1.9 4.1-4.2 4.1z"/><linearGradient id="SVGID_10_" gradientUnits="userSpaceOnUse" x1="357.95" y1="223.242" x2="357.95" y2="200.731"><stop offset="0" style="stop-color:#000"/><stop offset=".91" style="stop-color:#000;stop-opacity:0"/></linearGradient><path d="M359.2 223.2c0-4.2-9.4-12.9 1.3-22.5 0 0-3 6.4-1.7 10.4 1.9 5.9.4 12.1.4 12.1z" style="opacity:.45;fill:url(#SVGID_10_)"/><linearGradient id="SVGID_11_" gradientUnits="userSpaceOnUse" x1="352.943" y1="223.242" x2="352.943" y2="207.001"><stop offset="0" style="stop-color:#000"/><stop offset=".91" style="stop-color:#000;stop-opacity:0"/></linearGradient><path d="M353.8 223.2c0-3-6.8-9.3.9-16.2 0 0-1.6 4.6-.6 7.5 1.5 4.3-.3 8.7-.3 8.7z" style="opacity:.45;fill:url(#SVGID_11_)"/><path class="st19" d="M504.9 278.1v-78.6c0-11.2-8.8-42.7-46.7-39.7-19.1 1.5-37.3 22.1-42.8 48.1-4.4 20.8-22.3 31.2-34.1 33.9l1 16.6c10 .5 24.1-1.6 41.1-11.9v31.6h81.5z"/><linearGradient id="SVGID_12_" gradientUnits="userSpaceOnUse" x1="436.128" y1="205.335" x2="422.297" y2="230.565"><stop offset="0" style="stop-color:#000"/><stop offset=".946" style="stop-color:#000;stop-opacity:0"/></linearGradient><path d="M448.2 201.3c-.2-.3-18.3-2-30.1-3-1.1 3.1-2 6.3-2.7 9.7-1.3 6-3.6 11.1-6.6 15.4 4.7 4.5 13 10.3 25.4 10.5 20.3.2 14.2-32.1 14-32.6z" style="opacity:.45;fill:url(#SVGID_12_)"/><linearGradient id="SVGID_13_" gradientUnits="userSpaceOnUse" x1="471.953" y1="193.359" x2="477.121" y2="232.269"><stop offset="0" style="stop-color:#000"/><stop offset=".91" style="stop-color:#000;stop-opacity:0"/></linearGradient><path d="m494.1 172.5-7.1 5.2-44 41.2s27.5 32.1 61.8 6.1v-25.4c.1-6.1-2.5-17.9-10.7-27.1z" style="opacity:.45;fill:url(#SVGID_13_)"/><path class="st22" d="M373.7 242.5c-9.6-1.3-12.9-4.3-13.3-2.2-.4 2.2 6 5.9 6 5.9v8.5s5.8 3.1 15.8 3.6l-1-16.6c-3 .9-5.6 1.1-7.5.8z"/><g><path class="st10" d="m415.5 158.1-23.3 14.1-27.9.7-6.4-37.3 25.5-2 22.4-11.9z"/><path class="st19" d="M476.9 171.4c-5.6 6.5-13.8 24-40.9 21.4-14.8-1.4-23.3-7.7-28-13.1l-10.4 11.8c7.9 11.1 24.5 30.1 47.4 31.5 32.5 2.1 47.1-18 52.4-32.2 6.3-16.5-11.4-29.9-20.5-19.4z"/><path class="st22" d="M402.9 171.4s1.5-3 2-6.8l-4.4 2.5s-4.2-13.9-6.7-12.9c-2.5.9 1.9 12.6 1.9 12.6s-5.8-11.5-7.6-10.5c-1.9 1 3.2 12.9 3.2 12.9s-5.5-9.3-7.9-8.3c-2.5 1 4.2 12.1 4.2 12.1s-5.2-7.8-6.6-6.2c-1.4 1.7 4.1 9.4 4.1 9.4s3.2 5 7.5 7.4c0 0 1.8 3.3 5.1 8l10.4-11.8c-4-4.5-5.2-8.4-5.2-8.4z"/></g><g><path class="st10" d="M423.2 302.4c-4-30.4-4.9-88 19.8-90.6 26.5-2.7 16.4 61.1 11.1 89.7l-30.9.9z"/><path class="st10" d="M428.1 270.1s-93.2-30.6-101.8.9c-8.7 31.5 33.3 32.5 105.6 28.1l-3.8-29z"/></g><g><ellipse class="st23" cx="437.9" cy="118.7" rx="4.8" ry="7.9"/><path class="st16" d="M447.5 151.6c-2.3 1.3-5.9 2.8-7.6 0 0 0-8.6-.9-7.1-8.9 0 0-1.9-4.4.2-7 2.1-2.6-1-6.2 3.6-9.9s4.9-9.5 3.6-13.9c-1.3-4.4-3.2-13.3 1.2-19.6 4.4-6.3 13.6-7.6 17.6-3.6 4 4 6.2 7.1 9.1 6.6 2.9-.5 7.1-1.7 8.5 2.2 0 0 8.3 4.9 7.8 13.9-.5 8.9-7.6 15.3-6.4 20 1.2 4.7-.7 10.5-5.2 11.7-4.5 1.2-6.6 5.6-6.6 5.6l-10.4 7.2-8.3-4.3z"/><linearGradient id="SVGID_14_" gradientUnits="userSpaceOnUse" x1="463.264" y1="133.007" x2="474.873" y2="133.007"><stop offset="0" style="stop-color:#000"/><stop offset=".91" style="stop-color:#000;stop-opacity:0"/></linearGradient><path d="M465.2 137.3c3 .6 8.5-1.2 9.5-6.5s-6.4.4-6.4.4-3.4 2.7-3.5 2.8c-.2.1-1.6 2.5-1.6 2.5l2 .8z" style="fill:url(#SVGID_14_)"/><path class="st22" d="M447.5 151.6v13.8c0 5.5 17.1 9.3 18.4-2.2 1.3-11.5-.8-27.7-.8-27.7s11.1-.6 11.1-9.1c0-10.5-9.9-11.5-12.2-6.2-2.3 5.4 1.7 9.8-1.1 13.2-2.8 3.4-5.2 3-5.6 6.3-.3 3.3.6 9.7-5.7 9.4-.2 0-1.3 1.9-4.1 2.5zM440.1 111.9s-3.5 10.3-7.8 12.5c0 0 1.7 3.1 4.2 3.3 3 .3 4.8-1.9 6.6 0 1.7 1.9 5.3 2.5 7 1 1.7-1.4 3.6-4 7.6-2.6 0 0 3.4-4.1 3.1-8.7-.3-4.6-6.6-7.4-9.7-5-3.2 2.5-9.3 2.4-11-.5z"/><ellipse class="st23" cx="446.5" cy="118.5" rx="4.8" ry="7.9"/><path class="st23" d="M437.3 118s1.9-1.5 4.4 0M451.3 118h14.4M467 122.9s3.5-.5 5.9 1.5"/><path class="st23" d="M468.4 128.1s2-2.1 2-5"/><linearGradient id="SVGID_15_" gradientUnits="userSpaceOnUse" x1="451.593" y1="142.375" x2="457.407" y2="146.365"><stop offset="0" style="stop-color:#000"/><stop offset=".91" style="stop-color:#000;stop-opacity:0"/></linearGradient><path d="M459.2 143.8c-.2-5.1 2.6-9.4 2.6-9.4-2.4 2.3-4.3 2.3-4.6 5.3-.3 3.3.6 9.7-5.7 9.4 0 0-1.1 2-4 2.5v2.9c5.1-.1 4.7-3.6 4.7-3.6s7.2-2 7-7.1z" style="opacity:.45;fill:url(#SVGID_15_)"/></g></g><path class="st8" d="M429.8 263.2c8.1-18.8 33.9-1.5 51.2-3 17.3-1.5 23.9-50.8 18.7-79.6-5.2-28.9-10.9-50.9 22.5-54.2 33.4-3.3 36.3 58 28 113.2-12.8 84.4 7.2 159.5-61.7 159.5-70.3 0-79.8-87.2-58.7-135.9z"/></g></g></svg>