<svg width="199" height="199" viewBox="0 0 199 199" fill="none" xmlns="http://www.w3.org/2000/svg">
<circle cx="99.5" cy="99.5" r="99.5" fill="#E3D105"/>
<path d="M143.253 65.1289C140.916 62.7902 137.679 61.4483 134.369 61.4483H69.8934C68.0267 61.4483 66.5069 59.9284 66.5069 58.0291C66.5069 57.0722 66.881 56.1697 67.5546 55.4942C68.2339 54.817 69.1362 54.4429 70.0932 54.4429H131.672C132.7 54.4429 133.532 53.6112 133.532 52.5835C133.532 51.5558 132.7 50.7241 131.672 50.7241H70.0932C68.143 50.7241 66.309 51.4831 64.9255 52.865C63.5471 54.2449 62.7881 56.0789 62.7881 58.0599C62.7881 61.9784 65.9749 65.167 69.8934 65.167H73.4687V109.15C73.4687 110.27 74.3856 111.013 75.3415 111.013C75.7984 111.013 76.2641 110.843 76.6429 110.464L87.029 100.078C87.3919 99.7151 87.8679 99.5335 88.3437 99.5335C88.8196 99.5335 89.2954 99.7151 89.6585 100.078L100.045 110.464C100.423 110.843 100.889 111.013 101.346 111.013C102.302 111.013 103.219 110.27 103.219 109.15V65.167H134.369C136.698 65.167 138.979 66.1112 140.624 67.7581C142.296 69.4304 143.217 71.6531 143.217 74.0154V146.58C143.217 148.904 142.311 151.089 140.668 152.732C139.024 154.375 136.84 155.281 134.516 155.281H64.7838C62.3796 155.281 60.119 154.346 58.4193 152.648C56.7199 150.945 55.7829 148.683 55.7829 146.28V55.1729C55.7829 48.8575 60.9215 43.7188 67.2369 43.7188H139.714C140.742 43.7188 141.574 42.8872 141.574 41.8594C141.574 40.8317 140.742 40 139.714 40H67.2369C58.8697 40 52.0642 46.8057 52.0642 55.1729V146.28C52.0642 149.676 53.386 152.87 55.7883 155.276C58.1925 157.678 61.3863 159 64.7838 159H134.516C137.835 159 140.953 157.707 143.297 155.361C145.643 153.017 146.936 149.899 146.936 146.58V74.0154C146.936 70.6598 145.628 67.5039 143.253 65.1289ZM99.5 104.661L92.288 97.4486C91.2345 96.395 89.8338 95.8149 88.3437 95.8149C86.8539 95.8149 85.453 96.395 84.3995 97.4486L77.1875 104.661V65.2946H99.5V104.661V104.661Z" fill="#282A36"/>
</svg>
