<svg width="199" height="199" viewBox="0 0 199 199" fill="none" xmlns="http://www.w3.org/2000/svg">
<circle cx="99.5" cy="99.5" r="99.5" fill="#E3D105"/>
<g clip-path="url(#clip0_102_94)">
<path d="M148.85 86.1301C148.491 85.0254 147.536 84.2202 146.387 84.0534L115.879 79.6184L102.237 51.9748C101.723 50.9332 100.662 50.2737 99.5006 50.2737C98.339 50.2737 97.2783 50.9332 96.764 51.9748L83.1214 79.6184L52.613 84.0534C51.4631 84.2206 50.5082 85.0258 50.1493 86.1301C49.7905 87.2348 50.0895 88.4472 50.9216 89.2582L72.9975 110.776L67.7866 141.159C67.5905 142.303 68.0608 143.461 69.0003 144.143C69.9398 144.826 71.1857 144.916 72.2138 144.375L99.5006 130.031L126.787 144.375C127.233 144.61 127.721 144.726 128.207 144.726C128.209 144.726 128.212 144.726 128.215 144.726C128.215 144.726 128.215 144.726 128.216 144.726C129.901 144.726 131.267 143.359 131.267 141.674C131.267 141.418 131.235 141.17 131.176 140.932L126.004 110.775L148.078 89.2577C148.91 88.4477 149.21 87.2348 148.85 86.1301ZM120.595 107.526C119.875 108.227 119.547 109.237 119.717 110.227L124.154 136.097L100.921 123.883C100.032 123.415 98.97 123.415 98.0814 123.883L74.8476 136.097L79.2849 110.227C79.455 109.237 79.1267 108.227 78.4073 107.526L59.61 89.2036L85.5879 85.4274C86.5819 85.283 87.4412 84.6588 87.8855 83.758L99.5018 60.2206L111.118 83.758C111.562 84.6584 112.422 85.283 113.415 85.4274L139.392 89.2036L120.595 107.526Z" fill="#282A36"/>
</g>
<defs>
<clipPath id="clip0_102_94">
<rect width="99" height="99" fill="white" transform="translate(50 48)"/>
</clipPath>
</defs>
</svg>
