<svg width="199" height="199" viewBox="0 0 199 199" fill="none" xmlns="http://www.w3.org/2000/svg">
<circle cx="99.5" cy="99.5" r="99.5" fill="#E3D105"/>
<path d="M135.8 55.5431C135.8 53.5979 134.202 52 132.256 52H76.8345C69.2272 52 63.2005 58.0268 63.2005 65.4604C63.2005 65.4604 63.2005 126.162 63.2005 126.197C63.2005 132.224 68.1504 137 74.1772 137H132.083C133.507 137 134.914 136.114 135.452 134.69C135.991 133.266 135.626 131.685 134.393 130.8C131.249 128.802 131.058 124.425 133.854 122.48C134.445 121.89 135.782 120.674 135.678 118.937C135.765 118.659 135.8 55.5431 135.8 55.5431ZM70.2867 126.197C70.2867 124.078 72.0582 122.48 74.1772 122.48H125.188C123.624 125.085 123.954 128.142 125.188 129.914H74.1772C72.0582 129.914 70.2867 128.333 70.2867 126.197ZM128.731 115.394H74.1945C72.8224 115.394 71.5198 115.654 70.304 116.123V65.4604C70.304 61.9172 73.3088 59.0862 76.8519 59.0862H128.748V115.394H128.731Z" fill="#282A36"/>
</svg>
