<svg width="199" height="199" viewBox="0 0 199 199" fill="none" xmlns="http://www.w3.org/2000/svg">
<circle cx="99.5" cy="99.5" r="99.5" fill="#E3D105"/>
<g clip-path="url(#clip0_102_92)">
<path d="M111.409 82.4647C104.843 78.6763 94.2353 78.6763 87.7077 82.4647C81.1802 86.253 81.219 92.4114 87.7854 96.1997C94.3519 99.9881 104.959 99.9881 111.487 96.1997C118.014 92.392 117.975 86.253 111.409 82.4647ZM108.398 88.4288C107.834 88.6037 107.271 88.7979 106.708 88.9728C106.358 89.0699 106.144 89.0894 105.989 89.0116C105.911 88.9534 105.833 88.8757 105.756 88.7591C105.387 88.1568 104.823 87.6323 104.066 87.2049C103.968 87.1466 103.852 87.0883 103.735 87.0301C103.483 86.8941 103.25 86.7969 102.939 86.7192C101.851 86.4667 100.879 86.8746 101.015 87.5546C101.074 87.9043 101.268 88.2151 101.501 88.5454C101.89 89.0894 102.317 89.6333 102.589 90.2161C103.502 92.0423 101.521 93.849 98.3345 94.0239C97.1883 94.0822 96.1003 93.9462 95.0901 93.6159C94.6433 93.4799 94.313 93.4799 93.9828 93.713C93.6525 93.9267 93.2834 94.121 92.9337 94.3153C92.6228 94.4901 92.2926 94.5096 91.9817 94.3347C91.7486 94.2182 91.5349 94.0822 91.3018 93.9656C91.1464 93.8685 90.991 93.7908 90.8355 93.6936C90.5053 93.4993 90.5441 93.3051 90.855 93.1108C91.1075 92.9554 91.3601 92.8194 91.5932 92.664C92.1566 92.3337 92.1566 92.3143 91.6903 91.9452C91.1075 91.4789 90.583 90.9932 90.2527 90.4493C90.0002 90.0219 90.0584 89.9247 90.7384 89.6916C91.2435 89.5362 91.7292 89.3613 92.2343 89.2059C92.6034 89.0894 92.8171 89.0699 92.9725 89.1476C93.0697 89.2059 93.128 89.2836 93.2057 89.4196C93.5359 90.0413 94.0993 90.5853 94.7793 91.1098C94.8958 91.2069 95.0318 91.2846 95.1484 91.3623C95.5175 91.576 95.9449 91.7315 96.4306 91.848C97.6934 92.1394 98.8201 91.6343 98.7036 90.8378C98.6647 90.5658 98.5287 90.3327 98.3539 90.0801C97.9265 89.439 97.3631 88.8368 97.0717 88.1568C96.6054 87.0689 96.8191 86.0781 98.315 85.301C100.025 84.4268 101.929 84.3685 103.949 84.9125C104.784 85.1456 104.765 85.1456 105.406 84.7765C105.62 84.6405 105.833 84.5239 106.047 84.4074C106.533 84.1354 106.708 84.1354 107.193 84.4074C107.349 84.4851 107.485 84.5822 107.64 84.6599C108.67 85.2428 108.67 85.2428 107.66 85.845C106.941 86.253 106.941 86.253 107.543 86.7387C108.009 87.1078 108.378 87.4963 108.65 87.9237C108.864 88.1374 108.786 88.3123 108.398 88.4288ZM120.171 101.212C118.364 102.261 115.43 102.261 113.604 101.212C111.798 100.163 111.778 98.4533 113.585 97.4042C115.392 96.3552 118.325 96.3552 120.151 97.4042C121.977 98.4533 121.997 100.163 120.171 101.212ZM85.5902 81.2407C83.7834 82.2898 80.8499 82.2898 79.0237 81.2407C77.1976 80.1917 77.1976 78.4821 79.0043 77.433C80.8111 76.3839 83.7446 76.3839 85.5707 77.433C87.3775 78.4821 87.3969 80.1917 85.5902 81.2407ZM144.746 93.0719L92.9725 63.1734C89.9807 61.4443 85.1239 61.4443 82.1515 63.1734L54.3899 79.298C51.4176 81.027 51.437 83.844 54.4288 85.573L106.203 115.472C109.194 117.201 114.051 117.201 117.024 115.472L144.766 99.347C147.757 97.6179 147.738 94.801 144.746 93.0719ZM117.587 109.779C117.257 109.469 116.868 109.177 116.402 108.905C113.371 107.157 108.456 107.157 105.445 108.905C105.212 109.041 105.017 109.177 104.804 109.333L64.6087 86.117C64.9972 85.9616 65.3664 85.7867 65.7161 85.5924C68.7273 83.844 68.7079 81.0076 65.6772 79.2591C65.3469 79.0649 64.9972 78.89 64.6281 78.754L81.1996 69.1181C81.4522 69.3318 81.7436 69.5261 82.0738 69.7204C85.1045 71.4688 90.0196 71.4688 93.0308 69.7204C93.3805 69.5261 93.6719 69.3124 93.9439 69.0793L134.275 92.3531C133.731 92.5474 133.245 92.7611 132.779 93.0331C129.768 94.7816 129.768 97.6374 132.818 99.3858C133.284 99.6578 133.809 99.8715 134.353 100.066L117.587 109.779ZM53.0689 91.5566C54.3899 90.8767 56.4298 90.9738 57.6926 91.712L111.817 122.951L141.074 105.933C142.337 105.195 144.416 105.195 145.698 105.933C146.98 106.671 146.98 107.876 145.718 108.614L114.615 126.681C113.099 127.575 110.613 127.575 109.078 126.681L107.99 126.059L107.232 125.613L52.9718 94.2959C51.6507 93.5382 51.6701 92.2754 53.0689 91.5566ZM145.756 118.386L114.653 136.453C113.138 137.347 110.651 137.347 109.117 136.453L108.048 135.831L107.271 135.385L53.0106 104.068C51.6896 103.31 51.7284 102.047 53.1272 101.329C54.4288 100.649 56.4881 100.746 57.7509 101.484L111.856 132.723L141.113 115.724C142.396 114.986 144.455 114.986 145.737 115.724C147.019 116.443 147.039 117.647 145.756 118.386Z" fill="#282A36"/>
</g>
<defs>
<clipPath id="clip0_102_92">
<rect width="95" height="95" fill="white" transform="translate(52 52)"/>
</clipPath>
</defs>
</svg>
