<?xml version="1.0" encoding="utf-8"?>
<!-- Generator: Adobe Illustrator 19.0.0, SVG Export Plug-In . SVG Version: 6.00 Build 0)  -->
<svg version="1.1" xmlns="http://www.w3.org/2000/svg" xmlns:xlink="http://www.w3.org/1999/xlink" x="0px" y="0px"
	 viewBox="0 0 750 500" style="enable-background:new 0 0 750 500;" xml:space="preserve">
<style type="text/css">
	.st0{opacity:0.15;}
	.st1{fill:url(#SVGID_1_);}
	.st2{fill:none;stroke:#F9F9F9;stroke-width:1.033;stroke-linecap:round;stroke-miterlimit:10;}
	.st3{fill:url(#SVGID_2_);}
	.st4{fill:url(#SVGID_3_);}
	.st5{fill:url(#SVGID_4_);}
	.st6{fill:url(#SVGID_5_);}
	.st7{fill:url(#SVGID_6_);}
	.st8{fill:#F47676;}
	.st9{opacity:0.81;fill:#FCD163;}
	.st10{fill:#423A64;}
	.st11{fill:none;stroke:#423A64;stroke-width:2.3052;stroke-linecap:round;stroke-miterlimit:10;}
	.st12{fill:url(#SVGID_7_);}
	.st13{fill:url(#SVGID_8_);}
	.st14{fill:url(#SVGID_9_);}
	.st15{fill:#E26060;}
	.st16{fill:#F4EAE4;}
	.st17{opacity:0.45;fill:url(#SVGID_10_);}
	.st18{opacity:0.45;fill:url(#SVGID_11_);}
	.st19{fill:#7AC8A9;}
	.st20{opacity:0.45;fill:url(#SVGID_12_);}
	.st21{opacity:0.45;fill:url(#SVGID_13_);}
	.st22{fill:#D37A57;}
	.st23{fill:none;stroke:#423A64;stroke-width:1.1526;stroke-linecap:round;stroke-miterlimit:10;}
	.st24{fill:url(#SVGID_14_);}
	.st25{opacity:0.45;fill:url(#SVGID_15_);}
</style>
<g id="OBJECTS">
	<g>
		<path class="st0" d="M222.9,429.3c0,0-73.5-114.7-16.7-208.2c56.8-93.5,141.7-18,220.9-2.3c34.5,6.9,79.6,9.9,113.5,27.6
			c57.2,25.3,51.2,47.6,106,73.5c63.8,30.1,63.8,75.7,40.8,109.4c0,0-33.8,65.7-112.3,43.7s-194.1,24.4-214.6,4.5
			C340,457.7,252.5,476.3,222.9,429.3"/>
		<g>
			<g>
				<linearGradient id="SVGID_1_" gradientUnits="userSpaceOnUse" x1="162.1047" y1="346.2179" x2="152.5508" y2="262.4814">
					<stop  offset="3.984060e-003" style="stop-color:#60BEC8"/>
					<stop  offset="1" style="stop-color:#79D7DB"/>
				</linearGradient>
				<path class="st1" d="M163,341.9c-24.2-29.8-54.2-99.2-34.8-139.4c19.4-40.2,50-18.7,44.1,20.7c-5.9,39.4,2.5,83.5,16,107.4
					L163,341.9z"/>
				<path class="st2" d="M147.8,220.8c0.3,1.1-0.9,79.7,27.7,115.6"/>
			</g>
			<linearGradient id="SVGID_2_" gradientUnits="userSpaceOnUse" x1="172.7917" y1="337.6997" x2="183.4695" y2="261.8309">
				<stop  offset="3.984060e-003" style="stop-color:#67B292"/>
				<stop  offset="1" style="stop-color:#7AC8A9"/>
			</linearGradient>
			<path class="st3" d="M186,323.4c-2.2-56,4.6-72.1,14.1-83.8c9.6-11.8,12.1-27.8-4.2-30.9c-16.3-3.1-29.3,23.4-30.3,51.3
				c-1.4,38.1,13.5,69.5,13.5,69.5L186,323.4z"/>
			<g>
				<linearGradient id="SVGID_3_" gradientUnits="userSpaceOnUse" x1="148.1403" y1="362.7311" x2="116.6689" y2="282.3665">
					<stop  offset="3.984060e-003" style="stop-color:#67B292"/>
					<stop  offset="1" style="stop-color:#7AC8A9"/>
				</linearGradient>
				<path class="st4" d="M157.7,341.9c-4.5-36-35.7-70.5-41.6-109.3c-5.9-38.8-39.1-38.9-39.3-7.7c-0.3,31.3,50.3,86,60.1,136.6
					L157.7,341.9z"/>
				<path class="st2" d="M100.3,242.4c7.3,40.2,25.9,53.4,47.5,108.8"/>
			</g>
			<g>
				<linearGradient id="SVGID_4_" gradientUnits="userSpaceOnUse" x1="144.3215" y1="388.7694" x2="94.8664" y2="318.5205">
					<stop  offset="3.984060e-003" style="stop-color:#60BEC8"/>
					<stop  offset="1" style="stop-color:#79D7DB"/>
				</linearGradient>
				<path class="st5" d="M126.2,395.9c-15.5-36.2-64.9-74-80.1-93.6C30.9,282.6,18,240.2,56.8,241c38.8,0.9,74.5,83.2,87.7,128.4
					L126.2,395.9z"/>
				<path class="st2" d="M58.8,273.3c27,23.9,57.1,69.1,77.7,107.6"/>
			</g>
			<g>
				<linearGradient id="SVGID_5_" gradientUnits="userSpaceOnUse" x1="112.7432" y1="399.9821" x2="77.8997" y2="362.8907">
					<stop  offset="3.984060e-003" style="stop-color:#67B292"/>
					<stop  offset="1" style="stop-color:#7AC8A9"/>
				</linearGradient>
				<path class="st6" d="M125.4,388.3C111,364.9,85.6,329.6,62,327.2c-23.6-2.4-35.7,24-14.8,34.4C68.2,372,97,372,109.3,403.3
					L125.4,388.3z"/>
				<path class="st2" d="M59.5,346.4c0,0,35.6,13.2,57.8,49.5"/>
			</g>
			<linearGradient id="SVGID_6_" gradientUnits="userSpaceOnUse" x1="64.1764" y1="392.6398" x2="112.7065" y2="392.6398">
				<stop  offset="3.984060e-003" style="stop-color:#60BEC8"/>
				<stop  offset="1" style="stop-color:#79D7DB"/>
			</linearGradient>
			<path class="st7" d="M99.2,413.1c-6-12.8-27.1-5.8-33.9-22.2c-6.7-16.4,16.9-26.7,32.3-10.9s15.1,25.7,15.1,25.7L99.2,413.1z"/>
			<path class="st8" d="M265.2,429.3c9.5,0,16.7-8.6,15-18c-5.7-30.9-24.1-90.7-80.1-91.3c-75.6-0.8-61,58.7-88.8,72.8
				c-6.6,3.3-13.1,11.2-16.7,15.1c0,0,9.4,19.3,33.4,21.5c24,2.2,76.5,10.7,109.5,7.7S265.2,429.3,265.2,429.3"/>
		</g>
	</g>
	<g>
		<path class="st9" d="M297,142.3l54.2,287H446c95.4,0,173.7-75.4,177.2-170.7v0c3.3-88.1-58.6-165.3-145.3-181.1l-98.2-18
			L297,142.3z"/>
		<g>
			<path class="st10" d="M266.3,439.6c3.6,0,5.3-4.5,2.5-6.8c-10.1-8.5-23.1-13.7-37.3-13.7s-27.3,5.2-37.3,13.7
				c-2.7,2.3-1.1,6.8,2.5,6.8H266.3z"/>
			<path class="st11" d="M231.5,425c0,0,0-83.8,0-117.2c0-96-30.7-144.3-8.8-212.2c21.9-67.9,78.4-30.6,98-12.3"/>
			<path class="st10" d="M379.7,59.6c-21.3-0.5-42.8,7.4-59.1,23.7c-16.3,16.3-24.2,37.7-23.7,59.1L379.7,59.6z"/>
		</g>
	</g>
	<g>
		<g>
			<g>
				<linearGradient id="SVGID_7_" gradientUnits="userSpaceOnUse" x1="575.0829" y1="293.604" x2="620.4037" y2="293.604">
					<stop  offset="3.984060e-003" style="stop-color:#60BEC8"/>
					<stop  offset="1" style="stop-color:#79D7DB"/>
				</linearGradient>
				<path class="st12" d="M595,344.1c-0.6-25.8-19.8-50.4-19.9-74.8c-0.2-24.4,15.2-38.6,26.8-26c11.6,12.6,3.4,49.6,15,69.1
					c11.6,19.5-9.3,36.3-9.3,36.3L595,344.1z"/>
				<path class="st2" d="M594.3,258.4c-3.9,29.3,19.3,52.9,8.2,88.3"/>
			</g>
			<g>
				<linearGradient id="SVGID_8_" gradientUnits="userSpaceOnUse" x1="629.2799" y1="337.4926" x2="630.9658" y2="243.0782">
					<stop  offset="3.984060e-003" style="stop-color:#67B292"/>
					<stop  offset="1" style="stop-color:#7AC8A9"/>
				</linearGradient>
				<path class="st13" d="M614.5,341.2c0-21-7.2-37.5-6-69.9c1.3-32.4,10.5-53.3,30-49.7c19.5,3.6,4.1,19.3,12.5,50.6
					c8.4,31.3-25.5,73.4-25.5,73.4L614.5,341.2z"/>
				<path class="st2" d="M630.7,246.8c-4.8,28.2,2.9,39.4-12,96.1"/>
			</g>
			<g>
				<linearGradient id="SVGID_9_" gradientUnits="userSpaceOnUse" x1="659.5709" y1="341.1842" x2="659.5709" y2="246.8366">
					<stop  offset="3.984060e-003" style="stop-color:#60BEC8"/>
					<stop  offset="1" style="stop-color:#79D7DB"/>
				</linearGradient>
				<path class="st14" d="M630.7,341.2c0-20.7,4.7-73.7,30.1-89.7c25.4-16,35.4,12.8,20.8,29.2c-14.6,16.4-30.2,20.7-34.2,58.7
					L630.7,341.2z"/>
				<path class="st2" d="M670.4,267c-19.2,16.4-30.8,44.9-31.3,73.2"/>
			</g>
		</g>
		<path class="st8" d="M611.6,429.3H635c9.5,0,17.5-7.4,18.1-16.9l5.4-76.6c-11.6-0.9-23.4-1.4-35.2-1.4c-11.9,0-23.6,0.5-35.2,1.4
			l5.4,76.6C594.1,422,602,429.3,611.6,429.3z"/>
	</g>
	<g>
		<g>
			<path class="st8" d="M405.5,143.8c-13.6,41.3,16.1,94.2-7.9,104.9v0l-21.6,9.7c0,0-32.2,7.8-60.8-5
				c-28.6-12.8-36.2,61.1-26.8,99.4c9.4,38.3,43.2,46.2,66.9,46.2c23.7,0,64.4-30.1,64.4-30.1l46.2-45l57.5-65.6l5.5-126.4
				C461.8,109.2,411.5,125.5,405.5,143.8z"/>
			<path class="st15" d="M523.4,258.4l5.5-126.4c-37.3-12.7-68.7-13.3-90.2-8.1c-2.9,52.4-6.6,137.3-3.3,193.3
				c0.8,13.3,3.4,22.8,7.2,29.6l23.4-22.8L523.4,258.4z"/>
			<path class="st10" d="M351.2,429.3L351.2,429.3c-2.6,0-4.8-2-5.1-4.6l-4.1-36.5h18.4l-4.1,36.5
				C356,427.4,353.8,429.3,351.2,429.3z"/>
			<path class="st10" d="M465.9,429.3L465.9,429.3c-2.6,0-4.8-2-5.1-4.6l-4.1-36.5h18.4l-4.1,36.5
				C470.7,427.4,468.6,429.3,465.9,429.3z"/>
			<path class="st10" d="M511.6,429.3L511.6,429.3c-2.6,0-4.8-2-5.1-4.6l-4.1-36.5h18.4l-4.1,36.5
				C516.4,427.4,514.2,429.3,511.6,429.3z"/>
			<path class="st15" d="M488.4,399.1c0,0-103.5,0-141.7,0c-38.2,0-41-63-27.6-80.9c13.4-17.9,64.6-20.7,121.7-20.1
				C497.9,298.8,488.4,399.1,488.4,399.1z"/>
		</g>
		<g>
			<g>
				<g>
					<path class="st16" d="M362.2,257.1h-11.4c-2.3,0-4.1-1.9-4.1-4.1v-28h19.7v28C366.4,255.2,364.5,257.1,362.2,257.1z"/>
					<linearGradient id="SVGID_10_" gradientUnits="userSpaceOnUse" x1="357.9495" y1="223.242" x2="357.9495" y2="200.7309">
						<stop  offset="0" style="stop-color:#000000"/>
						<stop  offset="0.9104" style="stop-color:#000000;stop-opacity:0"/>
					</linearGradient>
					<path class="st17" d="M359.2,223.2c0-4.2-9.4-12.9,1.3-22.5c0,0-3,6.4-1.7,10.4C360.7,217,359.2,223.2,359.2,223.2z"/>
					<linearGradient id="SVGID_11_" gradientUnits="userSpaceOnUse" x1="352.9432" y1="223.242" x2="352.9432" y2="207.0006">
						<stop  offset="0" style="stop-color:#000000"/>
						<stop  offset="0.9104" style="stop-color:#000000;stop-opacity:0"/>
					</linearGradient>
					<path class="st18" d="M353.8,223.2c0-3-6.8-9.3,0.9-16.2c0,0-1.6,4.6-0.6,7.5C355.6,218.8,353.8,223.2,353.8,223.2z"/>
				</g>
				<path class="st19" d="M504.9,278.1c0,0,0-67.3,0-78.6c0-11.2-8.8-42.7-46.7-39.7c-19.1,1.5-37.3,22.1-42.8,48.1
					c-4.4,20.8-22.3,31.2-34.1,33.9l1,16.6c10,0.5,24.1-1.6,41.1-11.9v31.6H504.9z"/>
				<linearGradient id="SVGID_12_" gradientUnits="userSpaceOnUse" x1="436.1283" y1="205.3347" x2="422.297" y2="230.5654">
					<stop  offset="0" style="stop-color:#000000"/>
					<stop  offset="0.9462" style="stop-color:#000000;stop-opacity:0"/>
				</linearGradient>
				<path class="st20" d="M448.2,201.3c-0.2-0.3-18.3-2-30.1-3c-1.1,3.1-2,6.3-2.7,9.7c-1.3,6-3.6,11.1-6.6,15.4
					c4.7,4.5,13,10.3,25.4,10.5C454.5,234.1,448.4,201.8,448.2,201.3z"/>
				<linearGradient id="SVGID_13_" gradientUnits="userSpaceOnUse" x1="471.9529" y1="193.3589" x2="477.1206" y2="232.269">
					<stop  offset="0" style="stop-color:#000000"/>
					<stop  offset="0.9104" style="stop-color:#000000;stop-opacity:0"/>
				</linearGradient>
				<path class="st21" d="M494.1,172.5l-7.1,5.2l-44,41.2c0,0,27.5,32.1,61.8,6.1c0-11.7,0-21.7,0-25.4
					C504.9,193.5,502.3,181.7,494.1,172.5z"/>
				<path class="st22" d="M373.7,242.5c-9.6-1.3-12.9-4.3-13.3-2.2c-0.4,2.2,6,5.9,6,5.9v8.5c0,0,5.8,3.1,15.8,3.6l0,0l-1-16.6l0,0
					C378.2,242.6,375.6,242.8,373.7,242.5z"/>
			</g>
			<g>
				<polygon class="st10" points="415.5,158.1 392.2,172.2 364.3,172.9 357.9,135.6 383.4,133.6 405.8,121.7 				"/>
				<path class="st19" d="M476.9,171.4c-5.6,6.5-13.8,24-40.9,21.4c-14.8-1.4-23.3-7.7-28-13.1l-10.4,11.8
					c7.9,11.1,24.5,30.1,47.4,31.5c32.5,2.1,47.1-18,52.4-32.2C503.7,174.3,486,160.9,476.9,171.4z"/>
				<path class="st22" d="M402.9,171.4c0,0,1.5-3,2-6.8l-4.4,2.5c0,0-4.2-13.9-6.7-12.9c-2.5,0.9,1.9,12.6,1.9,12.6
					s-5.8-11.5-7.6-10.5c-1.9,1,3.2,12.9,3.2,12.9s-5.5-9.3-7.9-8.3c-2.5,1,4.2,12.1,4.2,12.1s-5.2-7.8-6.6-6.2
					c-1.4,1.7,4.1,9.4,4.1,9.4s3.2,5,7.5,7.4c0,0,1.8,3.3,5.1,8l10.4-11.8l0,0C404.1,175.3,402.9,171.4,402.9,171.4z"/>
			</g>
			<g>
				<path class="st10" d="M423.2,302.4c-4-30.4-4.9-88,19.8-90.6c26.5-2.7,16.4,61.1,11.1,89.7L423.2,302.4z"/>
				<path class="st10" d="M428.1,270.1c0,0-93.2-30.6-101.8,0.9c-8.7,31.5,33.3,32.5,105.6,28.1L428.1,270.1z"/>
			</g>
			<g>
				<ellipse class="st23" cx="437.9" cy="118.7" rx="4.8" ry="7.9"/>
				<path class="st16" d="M447.5,151.6c-2.3,1.3-5.9,2.8-7.6,0c0,0-8.6-0.9-7.1-8.9c0,0-1.9-4.4,0.2-7c2.1-2.6-1-6.2,3.6-9.9
					c4.6-3.7,4.9-9.5,3.6-13.9c-1.3-4.4-3.2-13.3,1.2-19.6c4.4-6.3,13.6-7.6,17.6-3.6c4,4,6.2,7.1,9.1,6.6c2.9-0.5,7.1-1.7,8.5,2.2
					c0,0,8.3,4.9,7.8,13.9c-0.5,8.9-7.6,15.3-6.4,20c1.2,4.7-0.7,10.5-5.2,11.7c-4.5,1.2-6.6,5.6-6.6,5.6l-10.4,7.2L447.5,151.6z"/>
				<linearGradient id="SVGID_14_" gradientUnits="userSpaceOnUse" x1="463.2638" y1="133.0074" x2="474.8735" y2="133.0074">
					<stop  offset="0" style="stop-color:#000000"/>
					<stop  offset="0.9104" style="stop-color:#000000;stop-opacity:0"/>
				</linearGradient>
				<path class="st24" d="M465.2,137.3c3,0.6,8.5-1.2,9.5-6.5c1-5.3-6.4,0.4-6.4,0.4s-3.4,2.7-3.5,2.8c-0.2,0.1-1.6,2.5-1.6,2.5
					L465.2,137.3z"/>
				<path class="st22" d="M447.5,151.6c0,0,0,8.3,0,13.8c0,5.5,17.1,9.3,18.4-2.2c1.3-11.5-0.8-27.7-0.8-27.7s11.1-0.6,11.1-9.1
					c0-10.5-9.9-11.5-12.2-6.2c-2.3,5.4,1.7,9.8-1.1,13.2c-2.8,3.4-5.2,3-5.6,6.3c-0.3,3.3,0.6,9.7-5.7,9.4
					C451.4,149.1,450.3,151,447.5,151.6z"/>
				<path class="st22" d="M440.1,111.9c0,0-3.5,10.3-7.8,12.5c0,0,1.7,3.1,4.2,3.3c3,0.3,4.8-1.9,6.6,0c1.7,1.9,5.3,2.5,7,1
					c1.7-1.4,3.6-4,7.6-2.6c0,0,3.4-4.1,3.1-8.7c-0.3-4.6-6.6-7.4-9.7-5C447.9,114.9,441.8,114.8,440.1,111.9z"/>
				<g>
					<ellipse class="st23" cx="446.5" cy="118.5" rx="4.8" ry="7.9"/>
					<path class="st23" d="M437.3,118c0,0,1.9-1.5,4.4,0"/>
					<line class="st23" x1="451.3" y1="118" x2="465.7" y2="118"/>
				</g>
				<g>
					<path class="st23" d="M467,122.9c0,0,3.5-0.5,5.9,1.5"/>
					<path class="st23" d="M468.4,128.1c0,0,2-2.1,2-5"/>
				</g>
				<linearGradient id="SVGID_15_" gradientUnits="userSpaceOnUse" x1="451.5932" y1="142.3752" x2="457.4069" y2="146.3649">
					<stop  offset="0" style="stop-color:#000000"/>
					<stop  offset="0.9104" style="stop-color:#000000;stop-opacity:0"/>
				</linearGradient>
				<path class="st25" d="M459.2,143.8c-0.2-5.1,2.6-9.4,2.6-9.4l0,0c-2.4,2.3-4.3,2.3-4.6,5.3c-0.3,3.3,0.6,9.7-5.7,9.4
					c0,0-1.1,2-4,2.5c0,0,0,1.2,0,2.9c5.1-0.1,4.7-3.6,4.7-3.6S459.4,148.9,459.2,143.8z"/>
			</g>
		</g>
		<path class="st8" d="M429.8,263.2c8.1-18.8,33.9-1.5,51.2-3c17.3-1.5,23.9-50.8,18.7-79.6c-5.2-28.9-10.9-50.9,22.5-54.2
			c33.4-3.3,36.3,58,28,113.2c-12.8,84.4,7.2,159.5-61.7,159.5C418.2,399.1,408.7,311.9,429.8,263.2z"/>
	</g>
</g>
<g id="DESIGNED_BY_FREEPIK">
</g>
</svg>
